<?xml version="1.0" encoding="iso-8859-1"?>
<!-- Generator: Adobe Illustrator 18.1.1, SVG Export Plug-In . SVG Version: 6.00 Build 0)  -->
<svg version="1.1" id="Capa_1" xmlns="http://www.w3.org/2000/svg" xmlns:xlink="http://www.w3.org/1999/xlink" x="0px" y="0px"
	 viewBox="0 0 23.971 23.971" style="enable-background:new 0 0 23.971 23.971;" xml:space="preserve">
<g>
	<g>
		<path style="fill:#010002;" d="M11.929,15.144h0.107c0.149-0.479,0.609-2.099,1.902-3.843c1.478-2,3.25-3.511,3.25-6.072
			c0.003-2.877-2.322-5.212-5.2-5.229c-0.002,0-0.002,0-0.002,0C9.108,0.017,6.778,2.352,6.778,5.229
			c0,2.562,1.775,4.072,3.252,6.072C11.323,13.046,11.784,14.664,11.929,15.144z M11.986,2.837c1.115,0,2.02,0.908,2.02,2.023
			c0,1.118-0.904,2.019-2.02,2.019c-1.113,0-2.021-0.9-2.021-2.019C9.965,3.745,10.873,2.837,11.986,2.837z"/>
		<path style="fill:#010002;" d="M19.717,11.892H15.17c-0.094,0.121-0.158,0.203-0.158,0.203c-0.317,0.427-0.572,0.843-0.787,1.232
			h4.761c0.252,0.351,1.078,1.483,1.831,2.516H3.155c0.752-1.031,1.573-2.165,1.83-2.516h4.761
			c-0.216-0.391-0.469-0.808-0.786-1.235l-0.159-0.2H4.253l-3.898,5.361H0.339v0.019l-0.006,0.011h0.006v6.688h23.268v-6.688h0.031
			L19.717,11.892z M10.232,23.083V18.95h3.503v4.133H10.232z"/>
	</g>
</g>
<g>
</g>
<g>
</g>
<g>
</g>
<g>
</g>
<g>
</g>
<g>
</g>
<g>
</g>
<g>
</g>
<g>
</g>
<g>
</g>
<g>
</g>
<g>
</g>
<g>
</g>
<g>
</g>
<g>
</g>
</svg>
