<?xml version="1.0" encoding="iso-8859-1"?>
<!-- Generator: Adobe Illustrator 16.0.0, SVG Export Plug-In . SVG Version: 6.00 Build 0)  -->
<!DOCTYPE svg PUBLIC "-//W3C//DTD SVG 1.1//EN" "http://www.w3.org/Graphics/SVG/1.1/DTD/svg11.dtd">
<svg version="1.1" id="Capa_1" xmlns="http://www.w3.org/2000/svg" xmlns:xlink="http://www.w3.org/1999/xlink" x="0px" y="0px"
	 width="528.816px" height="528.816px" viewBox="0 0 528.816 528.816" style="enable-background:new 0 0 528.816 528.816;"
	 xml:space="preserve">
<g>
	<path d="M336.852,242.844c0-0.273,44.686-237.902,44.686-237.902C381.813,2.408,381.313,0,377.407,0H151.186
		c-2.121,0-4.662,1.692-4.131,4.941l42.837,237.515l-78.63,281.277c-0.271,1.244-0.017,5.083,4.102,5.083h297.888h0.01
		c3.01,0,4.979-1.32,4.195-4.197C416.94,522.71,336.852,243.073,336.852,242.844z M248.904,24.011V8.391h30.786v15.62H248.904z
		 M260.255,246.739v273.683h-77.177l40.833-273.683H260.255z M215.459,246.739l-40.833,273.683h-54.029l76.94-273.683H215.459z
		 M244.708,32.403h39.177c2.312,0,4.195-1.882,4.195-4.195V8.391h57.842c-2.211,43.518-37.982,77.546-81.626,77.546
		c-43.644,0-79.417-34.028-81.626-77.546h57.842v19.816C240.511,30.521,242.394,32.403,244.708,32.403z M372.385,8.391
		l-41.479,229.953H197.679L156.208,8.391h18.067c1.062,23.087,10.854,44.648,27.595,60.752
		c16.884,16.241,39.054,25.186,62.426,25.186s45.542-8.945,62.427-25.186c16.74-16.104,26.531-37.666,27.596-60.752H372.385z
		 M331.047,246.739l76.955,273.683h-54.037l-40.83-273.683H331.047z M268.649,246.739h36.031l40.832,273.683h-76.863V246.739z"/>
</g>
<g>
</g>
<g>
</g>
<g>
</g>
<g>
</g>
<g>
</g>
<g>
</g>
<g>
</g>
<g>
</g>
<g>
</g>
<g>
</g>
<g>
</g>
<g>
</g>
<g>
</g>
<g>
</g>
<g>
</g>
</svg>
