<?xml version="1.0" encoding="iso-8859-1"?>
<!-- Generator: Adobe Illustrator 18.1.1, SVG Export Plug-In . SVG Version: 6.00 Build 0)  -->
<svg version="1.1" id="Capa_1" xmlns="http://www.w3.org/2000/svg" xmlns:xlink="http://www.w3.org/1999/xlink" x="0px" y="0px"
	 viewBox="0 0 21.124 21.124" style="enable-background:new 0 0 21.124 21.124;" xml:space="preserve">
<g>
	<g>
		<path style="fill:#010002;" d="M20.274,0.062c-0.357,0-0.66,0.236-0.787,0.57c-1.473,0.767-4.896,2.502-7.418,3.464
			C7.347,5.901,3.227,6.374,3.227,6.374v6.797c0,0,1.41,0.164,3.518,0.657l0.032,6.334c0.003,0.496,0.414,0.902,0.912,0.9
			l1.473-0.007c0.498-0.004,0.902-0.412,0.901-0.912l-0.03-5.404c0.66,0.211,1.34,0.445,2.037,0.712
			c2.521,0.963,5.945,2.698,7.42,3.463c0.126,0.334,0.429,0.57,0.785,0.57c0.467,0,0.849-0.406,0.849-0.906V0.969
			C21.123,0.47,20.74,0.062,20.274,0.062z"/>
		<rect x="0" y="6.451" style="fill:#010002;" width="2.473" height="6.645"/>
	</g>
</g>
<g>
</g>
<g>
</g>
<g>
</g>
<g>
</g>
<g>
</g>
<g>
</g>
<g>
</g>
<g>
</g>
<g>
</g>
<g>
</g>
<g>
</g>
<g>
</g>
<g>
</g>
<g>
</g>
<g>
</g>
</svg>
